<?xml version="1.0" encoding="UTF-8" standalone="no"?>
<svg width="60px" height="60px" viewBox="0 0 80 80" version="1.1" xmlns="http://www.w3.org/2000/svg" xmlns:xlink="http://www.w3.org/1999/xlink">
    <!-- Generator: Sketch 3.8.3 (29802) - http://www.bohemiancoding.com/sketch -->
    <title>Chat Icon New Live</title>
    <desc>Created with Sketch.</desc>
    <defs></defs>
    <g id="New-Icons" stroke="none" stroke-width="1" fill="none" fill-rule="evenodd">
        <g id="New-Caretrail-Icons--Footer" transform="translate(-217.000000, -280.000000)">
            <g id="Chat-Icon-New-Live" transform="translate(217.000000, 280.000000)">
                <circle id="Oval-1" fill="#3498DB" cx="40" cy="40" r="40"></circle>
                <g id="Chat-Group" transform="translate(8.636364, 20.581818)">
                    <g id="Group-49">
                        <path d="M23.9613968,27.1399206 L23.9613968,13.5927224 C23.9613968,9.85143778 26.8229329,6.81912325 30.3535102,6.81912325 L38.8763281,6.81912325 C38.8763281,3.07783867 36.014792,0.0455241358 32.4842147,0.0455241358 L6.9157611,0.0455241358 C3.3851838,0.0455241358 0.523647707,3.07783867 0.523647707,6.81912325 L0.523647707,22.6241878 C0.523647707,26.3654724 3.3851838,29.3977869 6.9157611,29.3977869 L9.04646556,29.3977869 L6.9157611,38.4292524 L17.5692834,29.3977869 L24.3534464,29.3977869 C24.1148075,28.6888169 23.9613968,27.9369474 23.9613968,27.1399206 L23.9613968,27.1399206 Z" id="Stroke-309" stroke="#FFFFFF" stroke-width="3" stroke-linecap="round" stroke-linejoin="round"></path>
                        <path d="M55.9219638,6.81912325 L30.3535102,6.81912325 C26.8229329,6.81912325 23.9613968,9.85143778 23.9613968,13.5927224 L23.9613968,27.1399206 C23.9613968,30.8812052 26.8229329,33.9135197 30.3535102,33.9135197 L45.2684414,33.9135197 L55.9219638,42.9449852 L53.7912593,33.9135197 L55.9219638,33.9135197 C59.4525411,33.9135197 62.3140772,30.8812052 62.3140772,27.1399206 L62.3140772,13.5927224 C62.3140772,9.85143778 59.4525411,6.81912325 55.9219638,6.81912325 L55.9219638,6.81912325 Z" id="Stroke-310" fill="#FFFFFF"></path>
                    </g>
                </g>
            </g>
        </g>
    </g>
</svg>