<?xml version="1.0" encoding="UTF-8" standalone="no"?>
<svg width="38px" height="38px" viewBox="0 0 80 80" version="1.1" xmlns="http://www.w3.org/2000/svg" xmlns:xlink="http://www.w3.org/1999/xlink">
    <!-- Generator: Sketch 3.8.3 (29802) - http://www.bohemiancoding.com/sketch -->
    <title>Teams Icon New Live</title>
    <desc>Created with Sketch.</desc>
    <defs></defs>
    <g id="New-Icons" stroke="none" stroke-width="1" fill="none" fill-rule="evenodd">
        <g id="New-Caretrail-Icons--Footer" transform="translate(-217.000000, -170.000000)">
            <g id="Teams-Icon-New-Live" transform="translate(217.000000, 170.000000)">
                <g id="Group">
                    <path d="M40,80 C62.09139,80 80,62.09139 80,40 C80,17.90861 62.09139,0 40,0 C17.90861,0 0,17.90861 0,40 C0,62.09139 17.90861,80 40,80 Z" id="Oval-1" fill="#3498DB"></path>
                    <path d="M49.9360549,52.4996865 L44.5626072,51.1650993 L43.9512178,48.7304493 C45.447753,47.3958621 46.4476158,45.3887983 46.6079588,43.3908046 L46.6705317,43.3908046 C47.3288508,43.3908046 47.8828816,42.9036155 47.9650086,42.2557576 L48.2909091,39.664326 C48.3873756,38.8959666 47.7877187,38.2196029 47.0120755,38.2105329 L47.1698113,34.968652 L47.8216123,34.3207941 C48.6650429,33.428046 48.6650429,32.3616719 47.8216123,31.0815047 C46.974271,29.7935632 45.4972899,29.137931 43.429777,29.137931 C42.3360549,29.137931 40.4380103,29.1949425 38.6963979,30.4336468 C33.4441852,30.4854754 32.8301887,32.6596865 32.8301887,34.968652 C32.8301887,35.7810658 33.1378388,38.2079415 33.1378388,38.2079415 L33.0035678,38.2079415 C32.2201029,38.2079415 31.6126244,38.8907837 31.7103945,39.664326 L32.036295,42.2557576 C32.1171184,42.9036155 32.6724528,43.3908046 33.3294683,43.3908046 L33.5419554,43.3908046 C33.697084,45.3343783 34.6461063,47.2909091 36.0761578,48.6242006 L35.4373928,51.1650993 L30.0639451,52.4996865 C27.093036,53.2382445 25.0085763,55.8918704 25.0085763,58.9355068 L25.0085763,58.9393939 L54.9914237,58.9393939 L54.9914237,58.9355068 C54.9914237,55.8918704 52.906964,53.2382445 49.9360549,52.4996865 Z M30.382024,44.7253918 L25.0085763,43.3908046 L24.397187,40.9561546 C25.8937221,39.6215674 26.8935849,37.6145037 27.053928,35.6165099 L27.1165009,35.6165099 C27.7748199,35.6165099 28.3288508,35.1293208 28.4109777,34.4814629 L28.7368782,31.8900313 C28.8333448,31.1216719 28.2336878,30.4453083 27.4580446,30.4362382 L27.6157804,27.1943574 L28.2675815,26.5464995 C29.111012,25.6537513 29.111012,24.5873772 28.2675815,23.30721 C27.4202401,22.0192685 25.943259,21.3636364 23.8757461,21.3636364 C22.782024,21.3636364 20.8839794,21.4206479 19.1423671,22.6593521 C13.8901544,22.7111808 13.2761578,24.8853918 13.2761578,27.1943574 C13.2761578,28.0067712 13.5838079,30.4336468 13.5838079,30.4336468 L13.4495369,30.4336468 C12.666072,30.4336468 12.0585935,31.116489 12.1563636,31.8900313 L12.4822642,34.4814629 C12.5630875,35.1293208 13.118422,35.6165099 13.7754374,35.6165099 L13.9879245,35.6165099 C14.1430532,37.5600836 15.0920755,39.5166144 16.5221269,40.849906 L15.8833619,43.3908046 L10.5099142,44.7253918 C7.53900515,45.4639498 5.45454545,48.1175758 5.45454545,51.1612121 L5.45454545,51.1650993 L35.4373928,51.1650993 L35.4373928,51.1612121 C35.4373928,48.1175758 33.3529331,45.4639498 30.382024,44.7253918 Z M69.4900858,44.7253918 L64.1166381,43.3908046 L63.5052487,40.9561546 C65.0017839,39.6215674 66.0016467,37.6145037 66.1619897,35.6165099 L66.2245626,35.6165099 C66.8828816,35.6165099 67.4369125,35.1293208 67.5190395,34.4814629 L67.84494,31.8900313 C67.9414065,31.1216719 67.3417496,30.4453083 66.5661063,30.4362382 L66.7238422,27.1943574 L67.3756432,26.5464995 C68.2190738,25.6537513 68.2190738,24.5873772 67.3756432,23.30721 C66.5283019,22.0192685 65.0513208,21.3636364 62.9838079,21.3636364 C61.8900858,21.3636364 59.9920412,21.4206479 58.2504288,22.6593521 C52.9982161,22.7111808 52.3842196,24.8853918 52.3842196,27.1943574 C52.3842196,28.0067712 52.6918696,30.4336468 52.6918696,30.4336468 L52.5575986,30.4336468 C51.7741338,30.4336468 51.1666552,31.116489 51.2644254,31.8900313 L51.5903259,34.4814629 C51.6711492,35.1293208 52.2264837,35.6165099 52.8834991,35.6165099 L53.0959863,35.6165099 C53.2511149,37.5600836 54.2001372,39.5166144 55.6301887,40.849906 L54.9914237,43.3908046 L49.617976,44.7253918 C46.6470669,45.4639498 44.5626072,48.1175758 44.5626072,51.1612121 L44.5626072,51.1650993 L74.5454545,51.1650993 L74.5454545,51.1612121 C74.5454545,48.1175758 72.4609949,45.4639498 69.4900858,44.7253918 Z" id="Combined-Shape" fill="#FFFFFF"></path>
                </g>
            </g>
        </g>
    </g>
</svg>