<?xml version="1.0" encoding="UTF-8" standalone="no"?>
<svg width="28px" height="21px" viewBox="0 0 28 21" version="1.1" xmlns="http://www.w3.org/2000/svg" xmlns:xlink="http://www.w3.org/1999/xlink">
    <!-- Generator: Sketch 3.8.3 (29802) - http://www.bohemiancoding.com/sketch -->
    <title>WHITE CAMERA ICON</title>
    <desc>Created with Sketch.</desc>
    <defs></defs>
    <g id="Home-Screen-1.0" stroke="none" stroke-width="1" fill="none" fill-rule="evenodd">
        <g id="Home-Screen-1.0-Keyboard-Copy-4" transform="translate(-50.000000, -378.000000)" fill="#808080">
            <g id="WHITE-CAMERA-ICON" transform="translate(50.000000, 378.000000)">
                <path d="M7.10199721,3.34491502 L1.50257405,3.34491502 C0.672901458,3.34491502 1.96113717e-15,4.01860804 0,4.84944037 L0,19.1017533 C0,19.9325856 0.672349447,20.6062787 1.50257405,20.6062787 L26.0974259,20.6062787 C26.9276506,20.6062787 27.6,19.9325856 27.6,19.1017533 L27.6,4.84944037 C27.6,4.01805081 26.9276506,3.34491502 26.0974259,3.34491502 L20.6394437,3.34491502 C20.1356191,2.94360356 19.4906189,2.26104979 18.9048059,1.1292983 C18.2861643,-0.066025255 16.5470574,0.0466508647 16.56,0.014816135 L11.04,0.00400592756 C11.0780023,0.0466508637 9.6421831,-0.273306796 8.77838827,1.11547953 C8.16858774,2.09636782 7.61888488,2.86930962 7.10199721,3.34491502 Z M13.566928,5.57218775 C16.7909148,5.57218775 19.872,8.31506694 19.872,11.6971877 C19.872,15.0798413 16.7909148,17.8221877 13.566928,17.8221877 C10.3424139,17.8221877 7.728,15.0798413 7.728,11.6971877 C7.728,8.31453424 10.3424139,5.57218775 13.566928,5.57218775 Z M22.632,5.85033509 C22.632,6.31205271 22.261369,6.68582411 21.8037426,6.68582411 C21.346631,6.68582411 20.976,6.31205271 20.976,5.85033509 C20.976,5.38966446 21.346631,5.01536956 21.8037426,5.01536956 C22.261369,5.01536956 22.632,5.38914097 22.632,5.85033509 Z M13.8,6.68582411 C16.5436731,6.68582411 18.768,8.92971827 18.768,11.6971877 C18.768,14.4646572 16.5442339,16.7085514 13.8,16.7085514 C11.0563269,16.7085514 8.832,14.4646572 8.832,11.6971877 C8.832,8.92915163 11.0563269,6.68582411 13.8,6.68582411 Z" id="CAMERA-ICON"></path>
            </g>
        </g>
    </g>
</svg>