<?xml version="1.0" encoding="UTF-8" standalone="no"?>
<svg width="26px" height="25px" viewBox="0 0 43 32" version="1.1" xmlns="http://www.w3.org/2000/svg" xmlns:xlink="http://www.w3.org/1999/xlink">
    <!-- Generator: Sketch 3.8.3 (29802) - http://www.bohemiancoding.com/sketch -->
    <title>Create Team Icon- Menu</title>
    <desc>Created with Sketch.</desc>
    <defs></defs>
    <g id="Teams-Screen-1.0" stroke="none" stroke-width="1" fill="none" fill-rule="evenodd" stroke-linecap="round" stroke-linejoin="round">
        <g id="Menu-Pop-Sync-Profile" transform="translate(-187.000000, -217.000000)" stroke="#FFFFFF">
            <g id="MENU-POPUP-AVAILABLE" transform="translate(177.000000, 87.000000)">
                <g id="MENU-AVAILABLE">
                    <g id="MENU-POP-UP-WITH-PROFILE">
                        <g id="Group">
                            <g>
                                <g id="CREATE-TEAM" transform="translate(11.000000, 130.000000)">
                                    <g id="Create-Team-Icon--Menu">
                                        <g id="Create-Team-Icon">
                                            <g id="Teams-Icon-New" transform="translate(16.000000, 0.000000)">
                                                <g id="Group">
                                                    <g>
                                                        <path d="M20.5730446,19.6559953 L16.2071184,18.5716432 L15.7103645,16.5934901 C16.9262993,15.5091379 17.7386878,13.8783986 17.8689666,12.2550287 L17.919807,12.2550287 C18.4546913,12.2550287 18.9048413,11.8591876 18.9715695,11.332803 L19.2363636,9.22726489 C19.3147427,8.60297283 18.8275214,8.05342738 18.1973113,8.04605799 L18.3254717,5.41202978 L18.85506,4.88564525 C19.5403473,4.16028736 19.5403473,3.29385841 18.85506,2.25372257 C18.1665952,1.20727011 16.966548,0.674568966 15.2866938,0.674568966 C14.3980446,0.674568966 12.8558834,0.720890805 11.4408233,1.72733804 C7.17340051,1.7694488 6.6745283,3.5359953 6.6745283,5.41202978 C6.6745283,6.07211599 6.924494,8.04395246 6.924494,8.04395246 L6.8153988,8.04395246 C6.17883362,8.04395246 5.68525729,8.59876176 5.76469554,9.22726489 L6.02948971,11.332803 C6.09515866,11.8591876 6.54636792,12.2550287 7.08019297,12.2550287 L7.25283877,12.2550287 C7.37888079,13.8341823 8.14996141,15.4238636 9.31187822,16.507163 L8.79288165,18.5716432 L4.4269554,19.6559953 C2.01309177,20.2560737 0.319468268,22.4121447 0.319468268,24.8850993 L0.319468268,24.8882576 L24.6805317,24.8882576 L24.6805317,24.8850993 C24.6805317,22.4121447 22.9869082,20.2560737 20.5730446,19.6559953 L20.5730446,19.6559953 Z" id="Combined-Shape"></path>
                                                    </g>
                                                </g>
                                            </g>
                                            <g id="Teams-Icon-New" transform="translate(0.000000, 6.000000)">
                                                <g id="Group">
                                                    <g>
                                                        <path d="M20.5730446,19.6559953 L16.2071184,18.5716432 L15.7103645,16.5934901 C16.9262993,15.5091379 17.7386878,13.8783986 17.8689666,12.2550287 L17.919807,12.2550287 C18.4546913,12.2550287 18.9048413,11.8591876 18.9715695,11.332803 L19.2363636,9.22726489 C19.3147427,8.60297283 18.8275214,8.05342738 18.1973113,8.04605799 L18.3254717,5.41202978 L18.85506,4.88564525 C19.5403473,4.16028736 19.5403473,3.29385841 18.85506,2.25372257 C18.1665952,1.20727011 16.966548,0.674568966 15.2866938,0.674568966 C14.3980446,0.674568966 12.8558834,0.720890805 11.4408233,1.72733804 C7.17340051,1.7694488 6.6745283,3.5359953 6.6745283,5.41202978 C6.6745283,6.07211599 6.924494,8.04395246 6.924494,8.04395246 L6.8153988,8.04395246 C6.17883362,8.04395246 5.68525729,8.59876176 5.76469554,9.22726489 L6.02948971,11.332803 C6.09515866,11.8591876 6.54636792,12.2550287 7.08019297,12.2550287 L7.25283877,12.2550287 C7.37888079,13.8341823 8.14996141,15.4238636 9.31187822,16.507163 L8.79288165,18.5716432 L4.4269554,19.6559953 C2.01309177,20.2560737 0.319468268,22.4121447 0.319468268,24.8850993 L0.319468268,24.8882576 L24.6805317,24.8882576 L24.6805317,24.8850993 C24.6805317,22.4121447 22.9869082,20.2560737 20.5730446,19.6559953 L20.5730446,19.6559953 Z" id="Combined-Shape"></path>
                                                    </g>
                                                </g>
                                            </g>
                                        </g>
                                    </g>
                                </g>
                            </g>
                        </g>
                    </g>
                </g>
            </g>
        </g>
    </g>
</svg>