<?xml version="1.0" encoding="UTF-8" standalone="no"?>
<svg width="26px" height="24px" viewBox="0 0 38 38" version="1.1" xmlns="http://www.w3.org/2000/svg" xmlns:xlink="http://www.w3.org/1999/xlink">
    <!-- Generator: Sketch 3.8.3 (29802) - http://www.bohemiancoding.com/sketch -->
    <title>PROFILE ICON</title>
    <desc>Created with Sketch.</desc>
    <defs></defs>
    <g id="Symbols" stroke="none" stroke-width="1" fill="none" fill-rule="evenodd">
        <g id="Edit-My-Profile-Icon--Menu" transform="translate(1.000000, 1.000000)" stroke="#FFFFFF">
            <g id="PROFILE-ICON">
                <path d="M26.2535763,24.9814263 L21.8876501,23.8970742 L21.3908962,21.9189211 C22.606831,20.834569 23.4192196,19.2038297 23.5494983,17.5804598 L23.6003388,17.5804598 C24.135223,17.5804598 24.5853731,17.1846186 24.6521012,16.6582341 L24.9168954,14.5526959 C24.9952744,13.9284039 24.5080532,13.3788584 23.8778431,13.371489 L24.0060034,10.7374608 L24.5355918,10.2110763 C25.2208791,9.48571839 25.2208791,8.61928945 24.5355918,7.57915361 C23.8471269,6.53270115 22.6470798,6 20.9672256,6 C20.0785763,6 18.5364151,6.04632184 17.1213551,7.05276907 C12.8539322,7.09487983 12.35506,8.86142633 12.35506,10.7374608 C12.35506,11.397547 12.6050257,13.3693835 12.6050257,13.3693835 L12.4959305,13.3693835 C11.8593654,13.3693835 11.365789,13.9241928 11.4452273,14.5526959 L11.7100214,16.6582341 C11.7756904,17.1846186 12.2268997,17.5804598 12.7607247,17.5804598 L12.9333705,17.5804598 C13.0594125,19.1596134 13.8304931,20.7492947 14.9924099,21.832594 L14.4734134,23.8970742 L10.1074871,24.9814263 C7.6936235,25.5815047 6,27.7375758 6,30.2105303 L6,30.2136886 L30.3610635,30.2136886 L30.3610635,30.2105303 C30.3610635,27.7375758 28.66744,25.5815047 26.2535763,24.9814263 L26.2535763,24.9814263 Z" id="Combined-Shape" stroke-linecap="round" stroke-linejoin="round"></path>
                <circle id="Oval-1" cx="18" cy="18" r="18"></circle>
            </g>
        </g>
    </g>
</svg>