<?xml version="1.0" encoding="UTF-8" standalone="no"?>
<svg width="512px" height="512px" viewBox="0 0 512 512" version="1.1" xmlns="http://www.w3.org/2000/svg" xmlns:xlink="http://www.w3.org/1999/xlink">
    <!-- Generator: Sketch 41 (35326) - http://www.bohemiancoding.com/sketch -->
    <title>512 - Play Store Copy</title>
    <desc>Created with Sketch.</desc>
    <defs>
        <linearGradient x1="50%" y1="0%" x2="50.8072674%" y2="156.553071%" id="linearGradient-1">
            <stop stop-color="#2C74B1" offset="0%"></stop>
            <stop stop-color="#00C1B5" offset="74.2121442%"></stop>
            <stop stop-color="#E75E00" offset="100%"></stop>
        </linearGradient>
        <linearGradient x1="50%" y1="0%" x2="46.5595367%" y2="250.107431%" id="linearGradient-2">
            <stop stop-color="#000000" stop-opacity="0" offset="0%"></stop>
            <stop stop-color="#000000" stop-opacity="0.3" offset="100%"></stop>
        </linearGradient>
    </defs>
    <g id="Page-2" stroke="none" stroke-width="1" fill="none" fill-rule="evenodd">
        <g id="512---Play-Store-Copy">
            <g id="Icon-Copy" transform="translate(19.000000, 12.000000)">
                <ellipse id="Gradient" fill="url(#linearGradient-1)" cx="237" cy="236.982249" rx="235.224719" ry="235.207101"></ellipse>
                <path d="M212.519984,223.09994 C235.02456,161.647494 256.696456,99.569235 256.696456,99.569235 L297.984238,389.078678 L360.085832,238.752449 L441.446658,354.137152 C441.446658,354.137152 417.588673,391.090827 382.565724,418.933825 C347.542774,446.776823 312.657033,462.794733 271.315843,470.122544 C264.314071,471.363623 258.973631,471.228406 251.788258,470.12324 C244.095616,468.940051 166.173451,335.354738 166.173451,335.354738 C166.173451,335.354738 191.755718,279.800182 212.519984,223.09994 Z" id="Shadow" fill="url(#linearGradient-2)"></path>
                <path d="M237,459.140794 C359.704121,459.140794 459.175384,359.676981 459.175384,236.982249 C459.175384,114.287516 359.704121,14.823703 237,14.823703 C114.295879,14.823703 14.8246158,114.287516 14.8246158,236.982249 C14.8246158,359.676981 114.295879,459.140794 237,459.140794 Z M237,473.668639 C106.271924,473.668639 0.29588015,367.700532 0.29588015,236.982249 C0.29588015,106.263965 106.271924,0.295857988 237,0.295857988 C367.728076,0.295857988 473.70412,106.263965 473.70412,236.982249 C473.70412,367.700532 367.728076,473.668639 237,473.668639 Z" id="White-Outer-Circle" fill="#FFFFFF"></path>
                <path d="M165.600545,334.085537 C166.92224,340.693518 176.099179,341.381893 178.392002,335.045042 L253.85099,126.493253 L290.783177,396.303158 C291.710477,403.077594 301.024391,404.221445 303.563557,397.87273 L364.582818,245.305333 L465.312074,243.946125 C468.989405,243.896504 471.930244,240.875395 471.88062,237.198289 C471.830996,233.521183 468.809702,230.580525 465.13237,230.630146 L359.960066,232.049308 C357.269992,232.085607 354.866027,233.736946 353.867029,236.234756 L300.559331,369.520813 L263.381124,97.9135994 C262.437755,91.0217732 252.888599,90.010061 250.521864,96.5511889 L173.982558,308.088734 L147.34731,174.92247 C146.103605,168.704412 137.694591,167.579899 134.860568,173.252654 L105.387883,232.246986 L11.1992337,232.246986 C7.52156745,232.246986 4.54022989,235.228141 4.54022989,238.905582 C4.54022989,242.583022 7.52156745,245.564177 11.1992337,245.564177 L109.505014,245.564177 C112.028114,245.564177 114.33451,244.138265 115.46207,241.881273 L138.096385,196.57504 L165.600545,334.085537 Z" id="EKG" fill="#FFFFFF"></path>
            </g>
        </g>
    </g>
</svg>