<?xml version="1.0" encoding="UTF-8" standalone="no"?>
<svg width="1242px" height="298px" viewBox="0 0 1242 298" version="1.1" xmlns="http://www.w3.org/2000/svg" xmlns:xlink="http://www.w3.org/1999/xlink">
    <!-- Generator: Sketch 41 (35326) - http://www.bohemiancoding.com/sketch -->
    <title>Combined Shape</title>
    <desc>Created with Sketch.</desc>
    <defs></defs>
    <g id="Page-1" stroke="none" stroke-width="1" fill="none" fill-rule="evenodd">
        <path d="M827.493713,297.520457 L413.993713,297.520457 L0,297.520457 L1.4487609,59.4933419 L9.19507873,59.4933419 L9.19507873,38.5351678 L19.447725,38.5351678 L19.447725,58.7779285 L25.6956573,58.7779285 L25.6956573,21.3349846 L47.3773501,31.9840979 L47.3773501,110.568042 L61.3313561,110.568042 L61.3313561,24.2445517 L83.7154468,24.2445517 L83.7154468,0.0367685418 L99.5054885,0.0367685418 L99.5054885,24.2837986 L109.03466,24.2837986 L109.03466,159.043436 L124.821581,159.043436 L124.821581,142.494757 L155.688723,157.921583 L168.189665,157.921583 L168.189665,118.990323 L183.613504,103.566484 L183.613504,59.8208618 L193.895423,49.538943 L193.895423,34.7913919 L207.850705,34.7913919 L207.850705,49.2272216 L218.890414,60.2669311 L218.890414,103.208989 L231.000567,115.319142 L231.000567,134.433856 L246.436841,134.433856 L246.436841,115.311191 L253.971636,122.845986 L253.971636,134.855101 L260.555094,141.438559 L260.555094,156.406391 L277.705754,156.406391 L277.705754,7.3531159 L286.431504,7.3531159 L286.431504,0 L318.823591,0 L318.823591,6.28602767 L329.053861,6.28602767 L329.053861,156.858422 L340.023392,156.858422 L340.023392,143.247828 L356.177511,143.247828 L356.177511,112.025218 L362.058007,112.025218 L362.058007,102.83154 L366.167914,102.83154 L366.167914,109.175328 L370.86283,109.175328 L370.86283,99.0586569 L375.272438,99.0586569 L375.272438,142.607228 L389.636666,142.607228 L389.636666,40.4517454 L395.859337,40.4517454 L395.859337,21.331085 L408.344636,21.331085 L408.344636,42.6886534 L414.987426,42.6886534 L414.987426,59.4933419 L422.195079,59.4933419 L422.195079,38.5351678 L432.447725,38.5351678 L432.447725,58.7779285 L438.695657,58.7779285 L438.695657,21.3349846 L460.37735,31.9840979 L460.37735,110.568042 L474.331356,110.568042 L474.331356,24.2445517 L496.715447,24.2445517 L496.715447,0.0367685418 L512.505488,0.0367685418 L512.505488,24.2837986 L522.03466,24.2837986 L522.03466,159.043436 L537.821581,159.043436 L537.821581,142.494757 L568.688723,157.921583 L581.189665,157.921583 L581.189665,118.990323 L596.613504,103.566484 L596.613504,59.8208618 L606.895423,49.538943 L606.895423,34.7913919 L620.850705,34.7913919 L620.850705,49.2272216 L631.890414,60.2669311 L631.890414,103.208989 L644.000567,115.319142 L644.000567,134.433856 L659.436841,134.433856 L659.436841,115.311191 L666.971636,122.845986 L666.971636,134.855101 L673.555094,141.438559 L673.555094,156.406391 L690.705754,156.406391 L690.705754,7.3531159 L699.431504,7.3531159 L699.431504,0 L731.823591,0 L731.823591,6.28602767 L742.053861,6.28602767 L742.053861,156.858422 L753.023392,156.858422 L753.023392,143.247828 L769.177511,143.247828 L769.177511,112.025218 L775.058007,112.025218 L775.058007,102.83154 L779.167914,102.83154 L779.167914,109.175328 L783.86283,109.175328 L783.86283,99.0586569 L788.272438,99.0586569 L788.272438,142.607228 L802.636666,142.607228 L802.636666,40.4517454 L808.859337,40.4517454 L808.859337,21.331085 L821.344636,21.331085 L821.344636,42.6886534 L827.493713,42.6886534 L833.64279,42.6886534 L833.64279,21.331085 L846.128089,21.331085 L846.128089,40.4517454 L852.350759,40.4517454 L852.350759,142.607228 L866.714987,142.607228 L866.714987,99.0586569 L871.124595,99.0586569 L871.124595,109.175328 L875.819512,109.175328 L875.819512,102.83154 L879.929419,102.83154 L879.929419,112.025218 L885.809914,112.025218 L885.809914,143.247828 L901.964034,143.247828 L901.964034,156.858422 L912.933565,156.858422 L912.933565,6.28602767 L923.163835,6.28602767 L923.163835,0 L955.555921,0 L955.555921,7.3531159 L964.281671,7.3531159 L964.281671,156.406391 L981.432331,156.406391 L981.432331,141.438559 L988.015789,134.855101 L988.015789,122.845986 L995.550584,115.311191 L995.550584,134.433856 L1010.98686,134.433856 L1010.98686,115.319142 L1023.09701,103.208989 L1023.09701,60.2669311 L1034.13672,49.2272216 L1034.13672,34.7913919 L1048.092,34.7913919 L1048.092,49.538943 L1058.37392,59.8208618 L1058.37392,103.566484 L1073.79776,118.990323 L1073.79776,157.921583 L1086.2987,157.921583 L1117.16584,142.494757 L1117.16584,159.043436 L1132.95277,159.043436 L1132.95277,24.2837986 L1142.48194,24.2837986 L1142.48194,0.0367685418 L1158.27198,0.0367685418 L1158.27198,24.2445517 L1180.65607,24.2445517 L1180.65607,110.568042 L1194.61008,110.568042 L1194.61008,31.9840979 L1216.29177,21.3349846 L1216.29177,58.7779285 L1222.5397,58.7779285 L1222.5397,38.5351678 L1232.79235,38.5351678 L1232.79235,59.4933419 L1240.53866,59.4933419 L1241.98743,297.520457 L827.493713,297.520457 Z" id="Combined-Shape" fill="#F7F7F7"></path>
    </g>
</svg>